<mxfile modified="2021-12-20T07:20:12.176Z" host="app.diagrams.net" agent="5.0 (Windows NT 10.0; Win64; x64) AppleWebKit/537.36 (KHTML, like Gecko) Chrome/100.0.4758.9 Safari/537.36" etag="jOeB8j8gNiWSuwfc0RPj" version="16.0.0" type="github">
  <diagram id="l2aKFoh6-Bn0gOPZ2l0T" name="Page-1">
    <mxGraphModel dx="868" dy="482" grid="1" gridSize="10" guides="1" tooltips="1" connect="1" arrows="1" fold="1" page="1" pageScale="1" pageWidth="1169" pageHeight="827" math="0" shadow="0">
      <root>
        <mxCell id="0" />
        <mxCell id="1" parent="0" />
        <mxCell id="mpq5AgpwV83IM184FDqD-40" value="Arista rack equipment layout" style="text;html=1;resizable=1;points=[];autosize=0;align=left;verticalAlign=top;spacingTop=-4;fontSize=20;fontStyle=1" parent="1" vertex="1">
          <mxGeometry x="40" y="40" width="580" height="30" as="geometry" />
        </mxCell>
        <mxCell id="mpq5AgpwV83IM184FDqD-41" value="Location:" style="text;html=1;resizable=1;points=[];autosize=0;align=left;verticalAlign=middle;spacingTop=-4;fontSize=14;fontStyle=0" parent="1" vertex="1">
          <mxGeometry x="40" y="80" width="580" height="30" as="geometry" />
        </mxCell>
        <mxCell id="mpq5AgpwV83IM184FDqD-42" value="Investor:" style="text;html=1;resizable=1;points=[];autosize=0;align=left;verticalAlign=middle;spacingTop=-4;fontSize=14;fontStyle=0" parent="1" vertex="1">
          <mxGeometry x="40" y="110" width="580" height="30" as="geometry" />
        </mxCell>
        <mxCell id="5u1AIgPzmf6fw-7Xj80o-1" value="" style="shape=image;verticalLabelPosition=bottom;verticalAlign=top;imageAspect=0;image=https://jgraph.github.io/drawio-libs/libs/arista/DCS-7500E-6C2-LC.svg;aspect=fixed;" vertex="1" parent="1">
          <mxGeometry x="160" y="290" width="162" height="15.89" as="geometry" />
        </mxCell>
        <mxCell id="5u1AIgPzmf6fw-7Xj80o-2" value="" style="shape=image;verticalLabelPosition=bottom;verticalAlign=top;imageAspect=0;image=https://jgraph.github.io/drawio-libs/libs/arista/DCS-7500E-6C2-LC.svg;aspect=fixed;" vertex="1" parent="1">
          <mxGeometry x="410" y="291" width="162" height="15.89" as="geometry" />
        </mxCell>
      </root>
    </mxGraphModel>
  </diagram>
</mxfile>
